#N canvas 735 23 566 375 10;
#X obj 28 19 notein;
#X floatatom 15 52 5 0 0 0 - - -, f 5;
#X floatatom 64 55 5 0 0 0 - - -, f 5;
#X obj 29 156 route 1 2 3 4;
#X obj 30 132 pack 1 1 1;
#X obj 61 204 s v2;
#X obj 29 194 s v1;
#X obj 66 182 s v3;
#X obj 102 182 s v4;
#X obj 147 316 r v1;
#X obj 143 376 *~ 0.25;
#X obj 143 400 throw~ out;
#X obj 37 346 catch~ out;
#X obj 37 380 output~;
#N canvas 1340 111 450 323 voice 1;
#X obj 26 23 inlet;
#X obj 33 250 outlet~;
#X obj 22 154 pvco;
#X obj 31 54 unpack 1 2;
#X obj 20 82 mtof~;
#X obj 36 196 *~;
#X obj 140 136 padsr;
#X obj 122 86 moses 1;
#X obj 179 86 r attack;
#X obj 237 85 r decay;
#X obj 248 107 r sustain;
#X obj 263 131 r release;
#X obj 31 107 r skew;
#X obj 60 130 r squish;
#X connect 0 0 3 0;
#X connect 2 0 5 0;
#X connect 3 0 4 0;
#X connect 3 1 7 0;
#X connect 4 0 2 0;
#X connect 5 0 1 0;
#X connect 6 0 5 1;
#X connect 7 0 6 1;
#X connect 7 1 6 0;
#X connect 8 0 6 2;
#X connect 9 0 6 3;
#X connect 10 0 6 4;
#X connect 11 0 6 5;
#X connect 12 0 2 2;
#X connect 13 0 2 3;
#X restore 145 346 pd voice;
#X obj 184 13 hsl 128 15 10 1000 1 0 empty empty attack 32 6 0 10 -262144
-1 -1 0 1;
#X obj 184 33 hsl 128 15 10 1000 1 0 empty empty decay 32 6 0 10 -262144
-1 -1 9300 1;
#X obj 184 54 hsl 128 15 0 1 0 0 empty empty sustain 32 6 0 10 -262144
-1 -1 1300 1;
#X obj 184 74 hsl 128 15 10 1000 1 0 empty empty release 32 6 0 10
-262144 -1 -1 150 1;
#X obj 335 28 s attack;
#X obj 335 48 s decay;
#X obj 331 69 s sustain;
#X obj 328 89 s release;
#X obj 186 123 hsl 128 15 0 1 0 0 empty empty skew 32 6 0 10 -262144
-1 -1 3450 1;
#X obj 186 143 hsl 128 15 0 1 0 0 empty empty squish 32 6 0 10 -262144
-1 -1 6400 1;
#X obj 325 138 s skew;
#X obj 321 158 s squish;
#X obj 219 377 *~ 0.25;
#X obj 219 401 throw~ out;
#N canvas 1340 111 450 323 voice 1;
#X obj 26 23 inlet;
#X obj 33 250 outlet~;
#X obj 22 154 pvco;
#X obj 31 54 unpack 1 2;
#X obj 20 82 mtof~;
#X obj 36 196 *~;
#X obj 140 136 padsr;
#X obj 122 86 moses 1;
#X obj 179 86 r attack;
#X obj 237 85 r decay;
#X obj 248 107 r sustain;
#X obj 263 131 r release;
#X obj 31 107 r skew;
#X obj 60 130 r squish;
#X connect 0 0 3 0;
#X connect 2 0 5 0;
#X connect 3 0 4 0;
#X connect 3 1 7 0;
#X connect 4 0 2 0;
#X connect 5 0 1 0;
#X connect 6 0 5 1;
#X connect 7 0 6 1;
#X connect 7 1 6 0;
#X connect 8 0 6 2;
#X connect 9 0 6 3;
#X connect 10 0 6 4;
#X connect 11 0 6 5;
#X connect 12 0 2 2;
#X connect 13 0 2 3;
#X restore 221 347 pd voice;
#X obj 291 377 *~ 0.25;
#X obj 291 401 throw~ out;
#N canvas 1340 111 450 323 voice 1;
#X obj 26 23 inlet;
#X obj 33 250 outlet~;
#X obj 22 154 pvco;
#X obj 31 54 unpack 1 2;
#X obj 20 82 mtof~;
#X obj 36 196 *~;
#X obj 140 136 padsr;
#X obj 122 86 moses 1;
#X obj 179 86 r attack;
#X obj 237 85 r decay;
#X obj 248 107 r sustain;
#X obj 263 131 r release;
#X obj 31 107 r skew;
#X obj 60 130 r squish;
#X connect 0 0 3 0;
#X connect 2 0 5 0;
#X connect 3 0 4 0;
#X connect 3 1 7 0;
#X connect 4 0 2 0;
#X connect 5 0 1 0;
#X connect 6 0 5 1;
#X connect 7 0 6 1;
#X connect 7 1 6 0;
#X connect 8 0 6 2;
#X connect 9 0 6 3;
#X connect 10 0 6 4;
#X connect 11 0 6 5;
#X connect 12 0 2 2;
#X connect 13 0 2 3;
#X restore 293 347 pd voice;
#X obj 362 377 *~ 0.25;
#X obj 362 401 throw~ out;
#N canvas 1340 111 450 323 voice 1;
#X obj 26 23 inlet;
#X obj 33 250 outlet~;
#X obj 22 154 pvco;
#X obj 31 54 unpack 1 2;
#X obj 20 82 mtof~;
#X obj 36 196 *~;
#X obj 140 136 padsr;
#X obj 122 86 moses 1;
#X obj 179 86 r attack;
#X obj 237 85 r decay;
#X obj 248 107 r sustain;
#X obj 263 131 r release;
#X obj 31 107 r skew;
#X obj 60 130 r squish;
#X connect 0 0 3 0;
#X connect 2 0 5 0;
#X connect 3 0 4 0;
#X connect 3 1 7 0;
#X connect 4 0 2 0;
#X connect 5 0 1 0;
#X connect 6 0 5 1;
#X connect 7 0 6 1;
#X connect 7 1 6 0;
#X connect 8 0 6 2;
#X connect 9 0 6 3;
#X connect 10 0 6 4;
#X connect 11 0 6 5;
#X connect 12 0 2 2;
#X connect 13 0 2 3;
#X restore 364 347 pd voice;
#X obj 223 317 r v2;
#X obj 295 317 r v3;
#X obj 366 317 r v4;
#X obj 24 100 poly 4 1;
#X connect 0 0 1 0;
#X connect 0 1 2 0;
#X connect 1 0 39 0;
#X connect 2 0 39 1;
#X connect 3 0 6 0;
#X connect 3 1 5 0;
#X connect 3 2 7 0;
#X connect 3 3 8 0;
#X connect 4 0 3 0;
#X connect 9 0 14 0;
#X connect 10 0 11 0;
#X connect 12 0 13 0;
#X connect 12 0 13 1;
#X connect 14 0 10 0;
#X connect 15 0 19 0;
#X connect 16 0 20 0;
#X connect 17 0 21 0;
#X connect 18 0 22 0;
#X connect 23 0 25 0;
#X connect 24 0 26 0;
#X connect 27 0 28 0;
#X connect 29 0 27 0;
#X connect 30 0 31 0;
#X connect 32 0 30 0;
#X connect 33 0 34 0;
#X connect 35 0 33 0;
#X connect 36 0 29 0;
#X connect 37 0 32 0;
#X connect 38 0 35 0;
#X connect 39 0 4 0;
#X connect 39 1 4 1;
#X connect 39 2 4 2;
