#N canvas 19 23 450 326 10;
#X obj 37 287 output~;
#N canvas 707 94 450 490 randomnotes 0;
#X obj 27 195 random 7;
#X obj 27 217 sel 0 1 2 3 4 5 6;
#X msg 27 258 0;
#X obj 28 413 outlet;
#X obj 77 12 tgl 30 0 empty empty empty 17 7 0 10 -253960 -1 -1 1 1
;
#X obj 25 51 moses 1;
#X obj 65 81 bng 15 250 50 0 empty empty empty 17 7 0 10 -262144 -1
-1;
#X msg 10 82 stop;
#X obj 28 384 +;
#X obj 267 233 * 12;
#X obj 277 201 random 2;
#X obj 25 164 metro 200;
#X obj 367 163 metro 200;
#X msg 54 258 4;
#X msg 81 258 7;
#X msg 107 258 11;
#X msg 134 258 12;
#X msg 161 258 16;
#X msg 188 258 19;
#X obj 28 305 + 62;
#X connect 0 0 1 0;
#X connect 1 0 2 0;
#X connect 1 1 13 0;
#X connect 1 2 14 0;
#X connect 1 3 15 0;
#X connect 1 4 16 0;
#X connect 1 5 17 0;
#X connect 1 6 18 0;
#X connect 2 0 19 0;
#X connect 4 0 5 0;
#X connect 5 0 7 0;
#X connect 5 1 6 0;
#X connect 6 0 11 0;
#X connect 7 0 11 0;
#X connect 8 0 3 0;
#X connect 9 0 8 1;
#X connect 10 0 9 0;
#X connect 11 0 0 0;
#X connect 11 0 10 0;
#X connect 13 0 19 0;
#X connect 14 0 19 0;
#X connect 15 0 19 0;
#X connect 16 0 19 0;
#X connect 17 0 19 0;
#X connect 18 0 19 0;
#X connect 19 0 8 0;
#X coords 0 -1 1 1 37 38 2 74 8;
#X restore 34 14 pd randomnotes;
#X obj 34 63 mtof;
#X obj 115 114 hsl 128 15 0 1 0 0 empty empty empty -2 -8 0 10 -262144
-1 -1 400 1;
#X obj 125 135 hsl 128 15 0 1 0 0 empty empty empty -2 -8 0 10 -262144
-1 -1 150 1;
#X obj 106 252 +~;
#N canvas 707 94 450 490 randomnotes 0;
#X obj 27 195 random 7;
#X obj 27 217 sel 0 1 2 3 4 5 6;
#X msg 27 258 0;
#X msg 54 258 2;
#X msg 107 258 5;
#X msg 134 258 7;
#X obj 28 413 outlet;
#X obj 77 12 tgl 30 0 empty empty empty 17 7 0 10 -253960 -1 -1 1 1
;
#X obj 25 51 moses 1;
#X obj 65 81 bng 15 250 50 0 empty empty empty 17 7 0 10 -262144 -1
-1;
#X msg 10 82 stop;
#X obj 28 384 +;
#X obj 267 233 * 12;
#X obj 277 201 random 2;
#X obj 25 164 metro 200;
#X obj 367 163 metro 200;
#X msg 81 258 4;
#X msg 161 258 9;
#X msg 188 258 11;
#X obj 28 305 + 38;
#X connect 0 0 1 0;
#X connect 1 0 2 0;
#X connect 1 1 3 0;
#X connect 1 2 16 0;
#X connect 1 3 4 0;
#X connect 1 4 5 0;
#X connect 1 5 17 0;
#X connect 1 6 18 0;
#X connect 2 0 19 0;
#X connect 3 0 19 0;
#X connect 4 0 19 0;
#X connect 5 0 19 0;
#X connect 7 0 8 0;
#X connect 8 0 10 0;
#X connect 8 1 9 0;
#X connect 9 0 14 0;
#X connect 10 0 14 0;
#X connect 11 0 6 0;
#X connect 12 0 11 1;
#X connect 13 0 12 0;
#X connect 14 0 0 0;
#X connect 14 0 13 0;
#X connect 16 0 19 0;
#X connect 17 0 19 0;
#X connect 18 0 19 0;
#X connect 19 0 11 0;
#X coords 0 -1 1 1 37 38 2 74 8;
#X restore 79 16 pd randomnotes;
#X obj 79 65 mtof;
#X obj 120 227 pvco;
#X obj 216 165 hsl 128 15 0 1 0 0 empty empty empty -2 -8 0 10 -262144
-1 -1 7400 1;
#X obj 226 186 hsl 128 15 0 1 0 0 empty empty empty -2 -8 0 10 -262144
-1 -1 12700 1;
#X obj 36 229 pvco;
#X connect 1 0 2 0;
#X connect 2 0 11 0;
#X connect 3 0 11 2;
#X connect 4 0 11 3;
#X connect 5 0 0 0;
#X connect 5 0 0 1;
#X connect 6 0 7 0;
#X connect 7 0 8 0;
#X connect 8 0 5 1;
#X connect 9 0 8 2;
#X connect 10 0 8 3;
#X connect 11 0 5 0;
