#N canvas 444 23 746 300 10;
#X obj 14 25 inlet;
#X obj 14 49 s \$0-trigger-on;
#X text 10 5 trigger on;
#X obj 119 27 inlet;
#X obj 119 49 s \$0-trigger-off;
#X text 115 7 trigger off;
#X obj 18 85 r \$0-trigger-on;
#X obj 178 320 s~ \$0-env-out;
#X obj 568 25 r~ \$0-env-out;
#X obj 568 47 outlet~;
#X obj 20 116 bng 15 250 50 0 1 empty empty 17 7 0 10 -262144 -1 -1
;
#X obj 178 274 *~;
#X obj 178 296 *~;
#X obj 240 26 inlet;
#X obj 240 48 s \$0-attack;
#X obj 330 26 inlet;
#X obj 330 48 s \$0-decay;
#X obj 402 26 inlet;
#X obj 402 93 s \$0-sustain;
#X obj 485 26 inlet;
#X obj 485 48 s \$0-release;
#X obj 402 48 sqrt;
#X obj 402 70 sqrt;
#X obj 178 249 line~;
#X obj 31 158 r \$0-attack;
#X obj 178 88 r \$0-attack;
#X obj 151 115 delay;
#X obj 122 125 bng 15 250 50 0 1 empty empty 17 7 0 10 -262144 -1 -1
;
#X obj 196 115 r \$0-sustain;
#X obj 279 114 r \$0-decay;
#X obj 164 189 spigot;
#X obj 26 185 pack 1 100;
#X msg 1 156 1;
#X msg 123 150 1;
#X obj 209 152 pack 0 100;
#X obj 363 130 r \$0-trigger-off;
#X obj 363 156 bng 15 250 50 0 empty empty empty 17 7 0 10 -262144
-1 -1;
#X obj 363 198 pack 0 100;
#X msg 363 176 0;
#X obj 468 129 r \$0-release;
#X connect 0 0 1 0;
#X connect 3 0 4 0;
#X connect 6 0 10 0;
#X connect 8 0 9 0;
#X connect 10 0 26 0;
#X connect 10 0 32 0;
#X connect 11 0 12 0;
#X connect 11 0 12 1;
#X connect 12 0 7 0;
#X connect 13 0 14 0;
#X connect 15 0 16 0;
#X connect 17 0 21 0;
#X connect 19 0 20 0;
#X connect 21 0 22 0;
#X connect 22 0 18 0;
#X connect 23 0 11 0;
#X connect 23 0 11 1;
#X connect 24 0 31 1;
#X connect 25 0 26 1;
#X connect 26 0 27 0;
#X connect 27 0 33 0;
#X connect 27 0 34 0;
#X connect 28 0 34 0;
#X connect 29 0 34 1;
#X connect 30 0 23 0;
#X connect 31 0 23 0;
#X connect 32 0 31 0;
#X connect 33 0 30 1;
#X connect 34 0 30 0;
#X connect 35 0 36 0;
#X connect 36 0 38 0;
#X connect 37 0 23 0;
#X connect 38 0 37 0;
#X connect 39 0 37 1;
